<?xml version="1.0" encoding="UTF-8"?>
<!DOCTYPE svg PUBLIC "-//W3C//DTD SVG 1.1//EN" "http://www.w3.org/Graphics/SVG/1.1/DTD/svg11.dtd"><svg version="1.1" viewBox="0 0 118900 84100" preserveAspectRatio="xMidYMid" fill-rule="evenodd" xmlns="http://www.w3.org/2000/svg" xmlns:xlink="http://www.w3.org/1999/xlink"><g visibility="visible" id="Standard"><desc>Master slide</desc></g><g visibility="visible" id="page1"><desc>Slide</desc><g><desc>Drawing</desc><g><g style="stroke:rgb(0,0,0);fill:none"><path style="fill:none" d="M 42500,19000 L 42668,18736 42888,18506 43155,18307 43468,18139 43821,17999 44211,17886 45086,17734 46064,17671 47114,17682 49313,17875 51440,18209 53258,18578 55000,19000"/></g><g/></g></g><g><desc>Drawing</desc><g><g style="stroke:rgb(0,0,0);fill:none"><path style="fill:none" d="M 42500,19000 L 42464,18702 42420,18568 42360,18442 42191,18218 41963,18028 41680,17870 41346,17743 40967,17644 40547,17572 39601,17500 38545,17512 36250,17731 33955,18107 31953,18524 30000,19000"/></g><g/></g></g><g><desc>Drawing</desc><g><g style="stroke:rgb(0,0,0);fill:none"><path style="fill:none" d="M 30000,19000 L 36500,11000"/></g><g/></g></g><g><desc>Drawing</desc><g><g style="stroke:rgb(0,0,0);fill:none"><path style="fill:none" d="M 42500,19000 L 49000,11000"/></g><g/></g></g><g><desc>Drawing</desc><g><g style="stroke:rgb(0,0,0);fill:none"><path style="fill:none" d="M 55000,19000 L 61500,11000"/></g><g/></g></g><g><desc>Drawing</desc><g><g style="stroke:rgb(0,0,0);fill:none"><path style="fill:none" d="M 49000,11000 L 48964,10702 48920,10568 48860,10442 48691,10218 48463,10028 48180,9870 47846,9743 47467,9644 47047,9572 46101,9500 45045,9512 42750,9731 40455,10107 38453,10524 36500,11000"/></g><g/></g></g><g><desc>Drawing</desc><g><g style="stroke:rgb(0,0,0);fill:none"><path style="fill:none" d="M 29000,19500 L 41000,19000"/></g><g/></g></g><g><desc>Drawing</desc><g><g style="stroke:rgb(0,0,0);fill:none"><path style="fill:none" d="M 41000,19000 L 41286,19330 41433,19462 41581,19574 41730,19667 41880,19743 42030,19801 42180,19844 42329,19872 42476,19886 42767,19879 43047,19831 43313,19750 43561,19646 43788,19527 43990,19403 44164,19281 44411,19082 44500,19000"/></g><g/></g></g><g><desc>Drawing</desc><g><g style="stroke:rgb(0,0,0);fill:none"><path style="fill:none" d="M 44500,19000 L 55094,20008"/></g><g/></g></g><g><desc>Drawing</desc><g><g style="stroke:rgb(0,0,0);fill:none"><path style="fill:none" d="M 29000,19500 L 35663,11300"/></g><g/></g></g><g><desc>Drawing</desc><g><g style="stroke:rgb(0,0,0);fill:none"><path style="fill:none" d="M 49000,11000 L 49168,10736 49388,10506 49655,10307 49968,10139 50321,9999 50711,9886 51586,9734 52564,9671 53614,9682 55813,9875 57940,10209 59758,10578 61500,11000"/></g><g/></g></g><g><desc>Drawing</desc><g><g style="stroke:rgb(0,0,0);fill:none"><path style="fill:none" d="M 55100,20000 L 62000,11500"/></g><g/></g></g><g><desc>Drawing</desc><g><g style="stroke:rgb(0,0,0);fill:none"><path style="fill:none" d="M 62000,11500 L 61377,11332"/></g><g/></g></g><g><desc>Drawing</desc><g><g style="stroke:rgb(0,0,0);fill:none"><path style="fill:none" d="M 42500,19001 L 42663,18769 42878,18569 43142,18399 43451,18258 43801,18144 44189,18055 45062,17945 46039,17916 47090,17955 49292,18180 53244,18846 54508,19073 54856,19114 54945,19110 54958,19106 54967,19101 54972,19094 54973,19087"/></g><g/></g></g><g><desc>Drawing</desc><g><g style="stroke:rgb(0,0,0);fill:none"><path style="fill:none" d="M 42500,19001 L 42701,18796 42949,18621 43241,18473 43574,18351 44348,18179 45242,18093 46227,18080 47275,18128 49446,18357 53291,18996 54510,19207 54844,19243 54894,19242 54929,19237 54942,19233 54950,19228 54955,19221 54956,19214"/></g><g/></g></g><g><desc>Drawing</desc><g><g style="stroke:rgb(0,0,0);fill:none"><path style="fill:none" d="M 42500,19002 L 42720,18809 42984,18645 43290,18508 43635,18396 44425,18244 45327,18175 46313,18178 47356,18241 49505,18493 53284,19161 54476,19379 54802,19416 54851,19416 54886,19411 54898,19407 54906,19402 54911,19395 54912,19388"/></g><g/></g></g><g><desc>Drawing</desc><g><g style="stroke:rgb(0,0,0);fill:none"><path style="fill:none" d="M 42500,19003 L 42750,18829 43042,18683 43372,18562 43736,18465 44558,18337 45480,18288 46477,18305 47523,18377 49657,18639 53370,19301 54533,19513 54850,19547 54897,19546 54931,19541 54943,19537 54951,19532 54955,19525 54956,19518"/></g><g/></g></g><g><desc>Drawing</desc><g><g style="stroke:rgb(0,0,0);fill:none"><path style="fill:none" d="M 42500,19004 L 42781,18854 43098,18728 43834,18546 44682,18446 45619,18419 47661,18533 49765,18802 53382,19448 54505,19648 54810,19678 54856,19677 54888,19671 54899,19667 54907,19662 54911,19656 54912,19648"/></g><g/></g></g><g><desc>Drawing</desc><g><g style="stroke:rgb(0,0,0);fill:none"><path style="fill:none" d="M 54934,19262 L 61434,11262"/></g><g/></g></g><g><desc>Drawing</desc><g><g style="stroke:rgb(0,0,0);fill:none"><path style="fill:none" d="M 54897,19413 L 61397,11413"/></g><g/></g></g><g><desc>Drawing</desc><g><g style="stroke:rgb(0,0,0);fill:none"><path style="fill:none" d="M 54956,19547 L 61456,11547"/></g><g/></g></g><g><desc>Drawing</desc><g><g style="stroke:rgb(0,0,0);fill:none"><path style="fill:none" d="M 54972,19097 L 61472,11097"/></g><g/></g></g><g><desc>Drawing</desc><g><g style="stroke:rgb(0,0,0);fill:none"><path style="fill:none" d="M 54879,19687 L 61379,11687"/></g><g/></g></g><g><desc>Drawing</desc><g><g style="stroke:rgb(0,0,0);fill:none"><path style="fill:none" d="M 61452,11543 L 61316,11510"/></g><g/></g></g><g><desc>Drawing</desc><g><g style="stroke:rgb(0,0,0);fill:none"><path style="fill:none" d="M 61373,11683 L 61354,11676"/></g><g/></g></g><g><desc>Drawing</desc><g><g style="stroke:rgb(0,0,0);fill:none"><path style="fill:none" d="M 61399,11406 L 61325,11388"/></g><g/></g></g><g><desc>Drawing</desc><g><g style="stroke:rgb(0,0,0);fill:none"><path style="fill:none" d="M 61434,11256 L 61360,11238"/></g><g/></g></g><g><desc>Drawing</desc><g><g style="stroke:rgb(0,0,0);fill:none"><path style="fill:none" d="M 61479,11096 L 61432,11085"/></g><g/></g></g><g><desc>Drawing</desc><g><g style="stroke:rgb(0,0,0);fill:none"><path style="fill:none" d="M 42500,19000 L 42392,18710 42224,18457 42000,18240 41726,18056 41404,17905 41039,17783 40196,17622 39232,17559 38177,17579 35932,17808 33726,18192 31822,18613 29982,19091"/></g><g/></g></g><g><desc>Drawing</desc><g><g style="stroke:rgb(0,0,0);fill:none"><path style="fill:none" d="M 42500,19000 L 42296,18719 42045,18475 41749,18266 41413,18091 41040,17946 40634,17831 39735,17682 38745,17630 37693,17658 35514,17901 33427,18293 31660,18717 30440,19056 30107,19157 30022,19184 30001,19191 29997,19193 29996,19193 29996,19193 29996,19193"/></g><g/></g></g><g><desc>Drawing</desc><g><g style="stroke:rgb(0,0,0);fill:none"><path style="fill:none" d="M 42500,19001 L 42229,18733 41920,18501 41574,18303 41195,18136 40352,17893 39415,17757 38408,17713 37358,17748 35226,17996 33219,18387 31538,18808 29952,19281"/></g><g/></g></g><g><desc>Drawing</desc><g><g style="stroke:rgb(0,0,0);fill:none"><path style="fill:none" d="M 42500,19001 L 42262,18762 41980,18556 41658,18381 41300,18235 40487,18026 39568,17914 38568,17887 37516,17931 35358,18179 33307,18551 31577,18940 30380,19239 30048,19321 29961,19339 29938,19342 29932,19341 29931,19341 29930,19340"/></g><g/></g></g><g><desc>Drawing</desc><g><g style="stroke:rgb(0,0,0);fill:none"><path style="fill:none" d="M 35656,11300 L 36274,11275"/></g><g/></g></g><g><desc>Drawing</desc><g><g style="stroke:rgb(0,0,0);fill:none"><path style="fill:none" d="M 29939,19339 L 29996,19267"/></g><g/></g></g><g><desc>Drawing</desc><g><g style="stroke:rgb(0,0,0);fill:none"><path style="fill:none" d="M 29980,19095 L 30068,18988"/></g><g/></g></g><g><desc>Drawing</desc><g><g style="stroke:rgb(0,0,0);fill:none"><path style="fill:none" d="M 29993,19197 L 30103,19062"/></g><g/></g></g><g><desc>Drawing</desc><g><g style="stroke:rgb(0,0,0);fill:none"><path style="fill:none" d="M 29952,19275 L 30028,19181"/></g><g/></g></g></g></svg>